<svg xmlns="http://www.w3.org/2000/svg" width="49.35" height="35.4" viewBox="0 0 49.35 35.4"><path d="M-1.9-24c0-8.05-5.4-10.95-11.6-10.95s-11.6,2.9-11.6,11v13.4c0,7.75,5.4,11,11.6,11s11.6-3.25,11.6-11Zm-7,.65v12.2c0,3.7-1.5,5.7-4.6,5.7-3.15,0-4.65-2-4.65-5.7v-12.2c0-3.7,1.5-5.7,4.65-5.7C-10.4-29.05-8.9-27.05-8.9-23.35ZM23.85-5.9H11.95l7.1-8.35c2.2-2.6,5.2-6.15,5.2-10.7,0-5.7-4.7-10-10.9-10-5.95,0-10.85,4.05-10.85,10H8.7a4.116,4.116,0,0,1,4.3-4.2,4.035,4.035,0,0,1,4.3,4.2c0,2.25-1.05,4.35-3.2,6.85L2.55-4.5V0h21.3Z" transform="translate(25.1 34.95)" fill="#e6fdff"/></svg>