<svg xmlns="http://www.w3.org/2000/svg" width="50.2" height="35.4" viewBox="0 0 50.2 35.4"><path d="M-1.9-24c0-8.05-5.4-10.95-11.6-10.95s-11.6,2.9-11.6,11v13.4c0,7.75,5.4,11,11.6,11s11.6-3.25,11.6-11Zm-7,.65v12.2c0,3.7-1.5,5.7-4.6,5.7-3.15,0-4.65-2-4.65-5.7v-12.2c0-3.7,1.5-5.7,4.65-5.7C-10.4-29.05-8.9-27.05-8.9-23.35ZM19.5-34.5H12L5.05-20.45C3.1-16.5,1.9-13.3,1.9-10.6,1.9-2.95,7.1.45,13.55.45,19.95.45,25.1-3,25.1-10.65c0-5.95-4.15-10.3-9.45-10.3a7.434,7.434,0,0,0-3.35.65ZM8.9-10.35c0-2.85,1.55-4.85,4.65-4.85,3,0,4.55,2,4.55,4.85,0,2.9-1.55,4.9-4.55,4.9C10.45-5.45,8.9-7.45,8.9-10.35Z" transform="translate(25.1 34.95)" fill="#e6fdff"/></svg>