<svg xmlns="http://www.w3.org/2000/svg" width="49.6" height="35.4" viewBox="0 0 49.6 35.4"><path d="M-1.9-24c0-8.05-5.4-10.95-11.6-10.95s-11.6,2.9-11.6,11v13.4c0,7.75,5.4,11,11.6,11s11.6-3.25,11.6-11Zm-7,.65v12.2c0,3.7-1.5,5.7-4.6,5.7-3.15,0-4.65-2-4.65-5.7v-12.2c0-3.7,1.5-5.7,4.65-5.7C-10.4-29.05-8.9-27.05-8.9-23.35Zm18.6,8.5h2.55c3.55,0,5.3,1.8,5.3,4.85a4.316,4.316,0,0,1-4.5,4.55c-3.1,0-4.75-1.6-5.1-3.8H1.8C2.05-3.65,6.2.45,13.5.45c7.1,0,11-4.5,11-10.1a8.825,8.825,0,0,0-5.2-8.25A8.441,8.441,0,0,0,24-25.45c0-5.15-4.6-9.5-10.9-9.5-5.95,0-10.6,3.85-10.85,9.5h6.2a4.1,4.1,0,0,1,4.3-3.7,4,4,0,0,1,4.3,4c0,2.9-1.95,4.4-4.8,4.4H9.7Z" transform="translate(25.1 34.95)" fill="#e6fdff"/></svg>