<svg xmlns="http://www.w3.org/2000/svg" width="49.7" height="35.4" viewBox="0 0 49.7 35.4"><path d="M-1.9-24c0-8.05-5.4-10.95-11.6-10.95s-11.6,2.9-11.6,11v13.4c0,7.75,5.4,11,11.6,11s11.6-3.25,11.6-11Zm-7,.65v12.2c0,3.7-1.5,5.7-4.6,5.7-3.15,0-4.65-2-4.65-5.7v-12.2c0-3.7,1.5-5.7,4.65-5.7C-10.4-29.05-8.9-27.05-8.9-23.35Zm22.5,5.6c2.8,0,4,2.15,4,6.35,0,4.05-1.5,5.95-4,5.95-2.25,0-3.55-1.25-4.1-3.45H2.6C3.15-2.8,8,.45,13.8.45c7.1,0,10.8-4.05,10.8-12.2,0-8.25-3.7-12.3-9-12.3a7.041,7.041,0,0,0-5.1,1.8v-5.9H23.3V-34.5H3.65v19.3h6.3A3.881,3.881,0,0,1,13.6-17.75Z" transform="translate(25.1 34.95)" fill="#e6fdff"/></svg>