<svg xmlns="http://www.w3.org/2000/svg" xmlns:xlink="http://www.w3.org/1999/xlink" width="42.039" height="62.861" viewBox="0 0 42.039 62.861"><defs><clipPath id="a"><rect width="42.039" height="62.862" fill="none"/></clipPath></defs><g transform="translate(21.02 31.431)"><g transform="translate(-21.02 -31.431)" clip-path="url(#a)"><path d="M6.7,25.8a9.38,9.38,0,0,0-3.463,2.668c-.464.663-.862,1.375-1.292,2.055l-.762,1.856a2.883,2.883,0,0,1-.066.365A27.584,27.584,0,0,0,.306,45.2,61.079,61.079,0,0,0,2.692,55.03a71.883,71.883,0,0,0,4.59,11,61.908,61.908,0,0,0,4.955,8.053,29.312,29.312,0,0,0,5.982,6.247,19.353,19.353,0,0,0,8.567,4.01,9.742,9.742,0,0,0,4.209-.6c-.066-.166-.1-.315-.166-.464l-.663-1.558-3.331-7.888c-.895-2.138-1.806-4.259-2.684-6.413a.762.762,0,0,0-.713-.547,5.962,5.962,0,0,1-4.855-3.231c-.679-1.292-1.342-2.6-1.889-3.944-1.408-3.414-2.767-6.844-4.143-10.274A6.41,6.41,0,0,1,12,46.6a6.512,6.512,0,0,1,1.458-3.7.7.7,0,0,0,.116-.58C12.8,40.415,12,38.526,11.193,36.637Q9.42,32.4,7.63,28.153C7.315,27.374,7.017,26.6,6.7,25.8" transform="translate(0.042 -21.525)" fill="#00c6d5"/><path d="M65.47,18.89l5.6-2.353a1.906,1.906,0,0,0,1.16-2.8Q69.944,8.294,67.641,2.85A6.485,6.485,0,0,0,66.249.282L65.6,0a8.613,8.613,0,0,0-1.475.3c-1.259.481-3.148,1.309-4.391,1.823L57.5,3l6.91,16.4c.331-.166.679-.365,1.044-.514" transform="translate(-47.972)" fill="#00c6d5"/><path d="M170.66,270.736c2.071-.878,4.839-2.022,6.893-2.916a1.807,1.807,0,0,0,.911-2.419c-.149-.381-.315-.746-.464-1.127q-2.4-5.717-4.822-11.45a1.943,1.943,0,0,0-2.834-1.127c-.994.414-2.684,1.094-3.662,1.558s-2.005.978-2.983,1.458l6.777,16.09.182-.05" transform="translate(-136.574 -209.79)" fill="#00c6d5"/></g></g></svg>