<svg xmlns="http://www.w3.org/2000/svg" xmlns:xlink="http://www.w3.org/1999/xlink" width="40.254" height="71.604" viewBox="0 0 40.254 71.604"><defs><clipPath id="a"><rect width="40.254" height="71.605" fill="none"/></clipPath></defs><g transform="translate(20.127 35.803)"><g transform="translate(-20.127 -35.802)" clip-path="url(#a)"><path d="M39.253,101.7a16.547,16.547,0,0,0-6.958,31.584,1.759,1.759,0,0,1-.467,3.347,1.448,1.448,0,0,0-.171.732,1.525,1.525,0,0,0,.14.685H46.709a1.416,1.416,0,0,0,.156-.685,1.463,1.463,0,0,0-.171-.732,1.759,1.759,0,0,1-.467-3.347,16.562,16.562,0,0,0-6.974-31.568m5.728,26.058a.9.9,0,0,1-1.79,0v-6.429a3.985,3.985,0,1,0-7.97,0v6.413a.9.9,0,1,1-1.79,0v-6.413a5.767,5.767,0,1,1,11.535,0Z" transform="translate(-19.126 -85.869)" fill="#fff"/><path d="M20.111,78.8A20.112,20.112,0,0,0,9.371,115.925a5.168,5.168,0,0,0-.436,2.086,4.935,4.935,0,0,0,.778,2.74,3.6,3.6,0,0,0,1.059,1.043,3.051,3.051,0,0,0,1.183.4,2.242,2.242,0,0,0,.732,3.611,2.273,2.273,0,0,0-1.339,2.086,2.242,2.242,0,0,0,1.074,1.884,2.226,2.226,0,0,0-1.074,1.883,2.273,2.273,0,0,0,2.273,2.273h1.9a4.623,4.623,0,0,0,9.2,0H26.6a2.273,2.273,0,0,0,2.273-2.273,2.226,2.226,0,0,0-1.074-1.884,2.242,2.242,0,0,0,1.074-1.884,2.273,2.273,0,0,0-1.354-2.07,2.242,2.242,0,0,0,.732-3.611,3.051,3.051,0,0,0,1.183-.4,3.783,3.783,0,0,0,1.4-1.666,5.284,5.284,0,0,0,0-4.2A20.112,20.112,0,0,0,20.1,78.816m6.974,35.133a1.759,1.759,0,0,0,.467,3.347,1.463,1.463,0,0,1,.171.732,1.416,1.416,0,0,1-.156.685h-14.9a1.525,1.525,0,0,1-.14-.685,1.448,1.448,0,0,1,.171-.732,1.759,1.759,0,0,0,.467-3.347,16.562,16.562,0,1,1,13.932,0" transform="translate(0.016 -66.534)" fill="#00c6d5"/><path d="M124.89,7.172A1.79,1.79,0,0,0,126.664,5.4V1.832a1.782,1.782,0,1,0-3.565,0V5.4a1.775,1.775,0,0,0,1.775,1.79" transform="translate(-103.938 -0.042)" fill="#00c6d5"/><path d="M55.857,20.979a1.79,1.79,0,0,0,2.522-2.522l-2.522-2.522a1.79,1.79,0,0,0-2.522,2.522Z" transform="translate(-44.68 -13.102)" fill="#00c6d5"/><path d="M181.357,20.979l2.522-2.522a1.79,1.79,0,0,0-2.522-2.522l-2.522,2.522a1.79,1.79,0,0,0,2.522,2.522" transform="translate(-150.645 -13.102)" fill="#00c6d5"/><path d="M97.86,190.9a5.76,5.76,0,0,0-5.759,5.76v6.413a.9.9,0,0,0,1.79,0V196.66a3.985,3.985,0,1,1,7.97,0v6.413a.9.9,0,0,0,1.79,0V196.66a5.76,5.76,0,0,0-5.759-5.76" transform="translate(-77.764 -161.184)" fill="#00c6d5"/></g></g></svg>