<svg xmlns="http://www.w3.org/2000/svg" xmlns:xlink="http://www.w3.org/1999/xlink" width="62.722" height="55.52" viewBox="0 0 62.722 55.52"><defs><clipPath id="a"><rect width="62.722" height="55.52" fill="none"/></clipPath></defs><g transform="translate(31.361 27.76)"><g transform="translate(-31.361 -27.76)" clip-path="url(#a)"><path d="M51.645,50.859c-5.558-.952-8.7-5.9-8.84-6.109l-.759-1.2L52.776,32.82A13.513,13.513,0,0,0,41.646,27.8l-1.021.028a12.294,12.294,0,0,0-9.447,4.413A15.818,15.818,0,0,0,27.8,42.529a22.783,22.783,0,0,0,.345,3.917c.745,3.875,3.186,8.219,7.268,12.867A88.3,88.3,0,0,0,47.149,70.083c.814.593,1.641,1.31,2.441,2,1.779,1.531,3.475,2.993,5.434,3.517.745.193,1.9-.345,3.089-1.145l-8.84-8.84L51.8,63.091l9.171,9.171.9-.772c.634-.552,1.2-1.048,1.683-1.42l1.407-1.117-8.826-8.826L58.651,57.6l9.033,9.061q1.71-1.476,3.227-2.91l-9.226-9.226,2.524-2.51,9.24,9.24c.621-.648,1.214-1.283,1.779-1.917s1.407-1.627,2.027-2.427L64.622,44.28c-3.572,3.462-8.44,7.364-12.977,6.578" transform="translate(-23.966 -23.966)" fill="#fff"/><path d="M188.076,27.828l-1.048-.028a13.507,13.507,0,0,0-10.385,4.22L164.7,43.963a10.12,10.12,0,0,0,5.572,3.393c2.593.455,6.1-1.793,10.84-6.565l1.531-1.531,14.715,14.7a21.06,21.06,0,0,0,3.158-7.544,22.8,22.8,0,0,0,.345-3.889,15.83,15.83,0,0,0-3.379-10.3,12.258,12.258,0,0,0-9.419-4.413" transform="translate(-141.986 -23.966)" fill="#fff"/><path d="M47.979,2c-5.806-.3-10.592,1.5-14.163,5.268l-.759.759A17.029,17.029,0,0,0,19.4,1.968L18.2,2A15.7,15.7,0,0,0,6.165,7.718,18.875,18.875,0,0,0,2,20.268a26.41,26.41,0,0,0,.414,4.565C3.283,29.37,6,34.28,10.509,39.41a92.759,92.759,0,0,0,12.26,11.253c.745.552,1.489,1.186,2.276,1.862,2.013,1.724,4.082,3.517,6.827,4.261a4.62,4.62,0,0,0,1.214.152c3.1,0,6.4-2.869,8.881-5.034.579-.5,1.1-.965,1.545-1.31a92.659,92.659,0,0,0,12.15-11.171c4.579-5.144,7.309-10.081,8.123-14.66a26.493,26.493,0,0,0,.4-4.5A19.377,19.377,0,0,0,60.019,7.732,16.036,16.036,0,0,0,47.979,2m4.992,35.057c-.552.634-1.158,1.269-1.779,1.917l-9.24-9.24-2.524,2.524,9.226,9.226q-1.517,1.434-3.227,2.91l-9.061-9.061-2.524,2.524,8.826,8.826L41.3,47.8c-.483.386-1.062.883-1.683,1.42l-.9.772-9.171-9.171-2.524,2.524,8.854,8.854c-1.2.8-2.344,1.352-3.089,1.145-1.958-.524-3.655-1.986-5.434-3.517-.8-.69-1.627-1.407-2.441-2A89.177,89.177,0,0,1,13.185,37.052C9.1,32.4,6.661,28.06,5.917,24.185a22.783,22.783,0,0,1-.345-3.917,15.746,15.746,0,0,1,3.365-10.3,12.273,12.273,0,0,1,9.447-4.413L19.4,5.526a13.475,13.475,0,0,1,11.129,5.02L19.8,21.275l.759,1.2c.138.207,3.282,5.144,8.84,6.109,4.523.786,9.392-3.117,12.977-6.578L55.013,34.638q-.938,1.2-2.027,2.427m7.282-12.908A21.262,21.262,0,0,1,57.109,31.7L42.38,16.972,40.849,18.5c-4.744,4.785-8.385,6.992-10.84,6.565a10.457,10.457,0,0,1-5.572-3.393L36.367,9.746a13.527,13.527,0,0,1,10.385-4.22l1.048.028a12.258,12.258,0,0,1,9.419,4.413,15.83,15.83,0,0,1,3.379,10.3,22.8,22.8,0,0,1-.345,3.889" transform="translate(-1.724 -1.692)" fill="#00c6d5"/></g></g></svg>