<svg xmlns="http://www.w3.org/2000/svg" xmlns:xlink="http://www.w3.org/1999/xlink" width="52.381" height="57.363" viewBox="0 0 52.381 57.363"><defs><clipPath id="a"><rect width="52.381" height="57.363" fill="none"/></clipPath></defs><g transform="translate(26.191 28.682)"><g transform="translate(-26.191 -28.682)" clip-path="url(#a)"><path d="M79.185,251.8H52.269a1.069,1.069,0,0,0,0,2.139H79.185a1.069,1.069,0,0,0,0-2.139" transform="translate(-43.996 -216.373)" fill="#00c6d5"/><path d="M40.788,64.937l-8.3-.45a1.337,1.337,0,0,0-1.407,1.407l.45,8.3H2.673V25.373h34.26L39.606,22.7H1.337A1.337,1.337,0,0,0,0,24.037V75.532a1.337,1.337,0,0,0,1.337,1.337H32.951a1.351,1.351,0,0,0,.521-.113,1.393,1.393,0,0,0,.183-.127,1.322,1.322,0,0,0,.239-.155l9.187-9.187a1.337,1.337,0,0,0,.155-.239,1.365,1.365,0,0,0,.127-.2,1.323,1.323,0,0,0,.113-.521V38.008L40.8,40.681Zm-6.669,7.527-.281-5.22,5.22.281Z" transform="translate(0 -19.506)" fill="#00c6d5"/><path d="M74.739,85.7H52.269a1.069,1.069,0,1,0,0,2.139H72.6Z" transform="translate(-43.996 -73.642)" fill="#00c6d5"/><path d="M51.2,128.283a1.069,1.069,0,0,0,1.069,1.069H68.506l.31-1.323.1-.324.028-.07.028-.1V127.5a2.841,2.841,0,0,1,.155-.3H52.269a1.069,1.069,0,0,0-1.069,1.069" transform="translate(-43.996 -109.303)" fill="#00c6d5"/><path d="M67.394,169.826l.253-1.126H52.269a1.069,1.069,0,1,0,0,2.139H67.338c0-.084-.028-.169-.028-.253A3.391,3.391,0,0,1,67.394,169.826Z" transform="translate(-43.996 -144.965)" fill="#00c6d5"/><path d="M79.185,293.3H52.269a1.069,1.069,0,1,0,0,2.139H79.185a1.069,1.069,0,1,0,0-2.139" transform="translate(-43.996 -252.034)" fill="#00c6d5"/><path d="M79.185,210.3H52.269a1.069,1.069,0,0,0,0,2.139H79.185a1.069,1.069,0,1,0,0-2.139" transform="translate(-43.996 -180.712)" fill="#00c6d5"/><path d="M203.665,24.759a.619.619,0,0,0-.886,0l-15.42,15.42h0l-.113.183V40.4l-.028.07L185.8,46.609a.619.619,0,0,0,.746.746l6.134-1.421.056-.028h.056l.183-.113h0l15.406-15.434a.619.619,0,0,0,0-.886ZM189.188,45.469l-1.52-1.52.478-2.1,3.123,3.123Z" transform="translate(-159.641 -21.115)" fill="#00c6d5"/><path d="M326.034,4.908,321.321.195a.633.633,0,0,0-.886,0L318.859,1.77a.619.619,0,0,0,0,.886l4.713,4.727a.619.619,0,0,0,.886,0l1.576-1.59a.619.619,0,0,0,0-.886" transform="translate(-273.836 -0.012)" fill="#00c6d5"/></g></g></svg>