<svg xmlns="http://www.w3.org/2000/svg" xmlns:xlink="http://www.w3.org/1999/xlink" width="96.324" height="62.385" viewBox="0 0 96.324 62.385"><defs><clipPath id="a"><rect width="96.324" height="62.385" fill="none"/></clipPath></defs><g transform="translate(48.162 31.193)"><g transform="translate(-48.162 -31.193)" clip-path="url(#a)"><path d="M106.9,52.31a13.574,13.574,0,0,0-5.7-1.673A13.567,13.567,0,0,0,79.433,36.807a16.147,16.147,0,0,0-3.259-4.889l-.043-.043-.107-.129a16.361,16.361,0,0,0-23.137,0c-3.259,3.259-4.782,6.69-4.782,10.743v2.573H45.531a16.361,16.361,0,0,0,0,32.7H74.094c21.079,0,25.882.021,26.182.043l.708.064v-.129a13.574,13.574,0,0,0,5.9-25.453" transform="translate(-23.38 -21.175)" fill="#fff"/><path d="M86.093,27.928l-.386-.15v-.407a18.677,18.677,0,0,0-25.089-16.49l-.429.15-.279-.343c-.493-.579-.879-1.008-1.265-1.415a21.529,21.529,0,0,0-30.407,0,19.944,19.944,0,0,0-6.111,11.472l-.064.472-.472.064a21.5,21.5,0,0,0,2.916,42.8H79.317a18.742,18.742,0,0,0,18.72-18.72A18.549,18.549,0,0,0,94.692,34.7a18.784,18.784,0,0,0-8.577-6.776M79.96,58.936v.129L79.253,59c-.322-.021-5.125-.043-26.182-.043H24.508a16.361,16.361,0,0,1,0-32.7h2.573V23.683c0-4.074,1.522-7.484,4.782-10.743a16.361,16.361,0,0,1,23.137,0l.107.129.043.043A16.147,16.147,0,0,1,58.41,18,13.547,13.547,0,0,1,80.175,31.81a13.574,13.574,0,0,1-.214,27.126" transform="translate(-2.357 -2.346)" fill="#00c6d5"/></g></g></svg>