<svg xmlns="http://www.w3.org/2000/svg" xmlns:xlink="http://www.w3.org/1999/xlink" width="82.584" height="84.326" viewBox="0 0 82.584 84.326"><defs><clipPath id="a"><rect width="82.584" height="84.326" fill="none"/></clipPath></defs><g transform="translate(41.292 42.163)"><g transform="translate(-41.292 -42.163)"><path d="M141.17,181.7l-6.811,10.655L127.5,181.7h-8.3l8.48,13.665H119.42v5.844H130.58v2.7H119.42v5.822H130.58v5.273h7.448v-5.273h11.248v-5.822H138.028v-2.7h11.248v-5.844h-8.524L149.5,181.7Z" transform="translate(-93.012 -141.781)" fill="#00c6d5"/><g clip-path="url(#a)"><path d="M79.28,27.2c-3.405-4.943-8.744-8.832-15.247-11.556a54.046,54.046,0,0,0-10.809-3.186A7.382,7.382,0,1,0,41.58,3.411a7.382,7.382,0,1,0-11.644,9.052,49.91,49.91,0,0,0-16.895,6.305A30.369,30.369,0,0,0,3.88,27.226,19.417,19.417,0,0,0,.3,38.343a3.713,3.713,0,0,0,7.426,0,12.269,12.269,0,0,1,2.307-6.964c2.307-3.405,6.481-6.613,11.973-8.9A51.555,51.555,0,0,1,41.58,18.79c9.755,0,18.542,2.483,24.606,6.261a22.809,22.809,0,0,1,6.942,6.327,12.216,12.216,0,0,1,2.307,6.964,3.713,3.713,0,0,0,7.426,0,19.687,19.687,0,0,0-3.6-11.161" transform="translate(-0.233 -0.226)" fill="#00c6d5"/><path d="M80.435,125.31a27.6,27.6,0,0,0-11.183-12.874C64.089,109.4,57.477,107.8,49.128,107.8s-14.566,1.362-19.619,4.328-8.59,7.47-11.644,13.116v.044h-.022c-5.207,10.37-7.821,18.235-7.843,24.606a15.638,15.638,0,0,0,2.724,9.293,15.428,15.428,0,0,0,5.383,4.592,36.566,36.566,0,0,0,11.908,3.537,116.937,116.937,0,0,0,13.709,1.033v.11H54.533v-.11c9.645-.286,17.466-1.1,23.332-3.493a17.251,17.251,0,0,0,7.667-5.668,15.384,15.384,0,0,0,2.724-9.293c-.022-6.371-2.636-14.236-7.843-24.606Zm1.1,31.021a10.97,10.97,0,0,1-3.735,3.142,31.606,31.606,0,0,1-10.282,2.988,126.224,126.224,0,0,1-15.489,1.055l-1.867.044H48.117l-1.867-.044c-10.567-.176-18.828-1.033-23.991-3.186a12.407,12.407,0,0,1-5.492-4,10.406,10.406,0,0,1-1.8-6.415c-.022-4.965,2.219-12.325,7.294-22.343,2.834-5.229,5.8-8.81,9.8-11.183s9.315-3.647,17.092-3.647,13.38,1.45,17.6,3.955a22.789,22.789,0,0,1,9.227,10.765v.088c5.075,10.04,7.338,17.422,7.316,22.365a10.6,10.6,0,0,1-1.8,6.415" transform="translate(-7.803 -84.117)" fill="#00c6d5"/><path d="M93.409,144.664v-.044a22.909,22.909,0,0,0-9.227-10.765c-4.2-2.5-9.864-3.955-17.6-3.955s-13.072,1.274-17.092,3.647-6.964,5.954-9.8,11.183c-5.075,10.018-7.316,17.378-7.294,22.343a10.6,10.6,0,0,0,1.8,6.415,11.9,11.9,0,0,0,5.514,3.977c5.163,2.153,13.4,3.01,23.991,3.186l1.867.044h2.043l1.867-.044A125.6,125.6,0,0,0,84.973,179.6a31.4,31.4,0,0,0,10.282-2.988,10.97,10.97,0,0,0,3.735-3.142,10.551,10.551,0,0,0,1.8-6.415c.022-4.965-2.219-12.347-7.316-22.365ZM81.48,154.88v5.844H70.231v2.68H81.48v5.844H70.231v5.273H62.784v-5.273H51.6V163.4H62.784v-2.68H51.6V154.88h8.283L51.4,141.192h8.3l6.855,10.677,6.811-10.677h8.3L72.955,154.88Z" transform="translate(-25.281 -101.361)" fill="#fff"/></g></g></g></svg>