<svg xmlns="http://www.w3.org/2000/svg" xmlns:xlink="http://www.w3.org/1999/xlink" width="53.896" height="95.871" viewBox="0 0 53.896 95.871"><defs><clipPath id="a"><rect width="53.896" height="95.872" fill="none"/></clipPath></defs><g transform="translate(26.948 47.936)"><g transform="translate(-26.948 -47.936)" clip-path="url(#a)"><path d="M44.879,101.7a22.155,22.155,0,0,0-9.316,42.288,2.355,2.355,0,0,1-.625,4.481,1.938,1.938,0,0,0-.229.98,2.042,2.042,0,0,0,.188.917H54.862a1.9,1.9,0,0,0,.208-.917,1.959,1.959,0,0,0-.229-.98,2.355,2.355,0,0,1-.625-4.481,22.175,22.175,0,0,0-9.337-42.267m7.67,34.889a1.2,1.2,0,0,1-2.4,0V128a5.335,5.335,0,0,0-10.671,0v8.587a1.2,1.2,0,1,1-2.4,0V128a7.722,7.722,0,0,1,15.444,0Z" transform="translate(-17.931 -80.504)" fill="#fff"/><path d="M26.934,78.8a26.927,26.927,0,0,0-14.381,49.707,6.919,6.919,0,0,0-.584,2.793,6.607,6.607,0,0,0,1.042,3.668,4.815,4.815,0,0,0,1.417,1.4,4.085,4.085,0,0,0,1.584.542,3,3,0,0,0,.98,4.835,3.043,3.043,0,0,0-1.792,2.793,3,3,0,0,0,1.438,2.522,2.98,2.98,0,0,0-1.438,2.522,3.043,3.043,0,0,0,3.043,3.043h2.543a6.19,6.19,0,0,0,12.317,0h2.522a3.043,3.043,0,0,0,3.043-3.043,2.98,2.98,0,0,0-1.438-2.522,3,3,0,0,0,1.438-2.522,3.043,3.043,0,0,0-1.813-2.772,3,3,0,0,0,.98-4.835,4.085,4.085,0,0,0,1.584-.542,5.065,5.065,0,0,0,1.876-2.23,7.074,7.074,0,0,0,0-5.627A26.927,26.927,0,0,0,26.913,78.821m9.337,47.04a2.355,2.355,0,0,0,.625,4.481,1.959,1.959,0,0,1,.229.98,1.9,1.9,0,0,1-.208.917H16.95a2.043,2.043,0,0,1-.188-.917,1.938,1.938,0,0,1,.229-.98,2.355,2.355,0,0,0,.625-4.481,22.176,22.176,0,1,1,18.653,0" transform="translate(0.015 -62.377)" fill="#00c6d5"/><path d="M125.5,9.585a2.4,2.4,0,0,0,2.376-2.376V2.436a2.386,2.386,0,1,0-4.773,0V7.209a2.376,2.376,0,0,0,2.376,2.4" transform="translate(-97.444 -0.04)" fill="#00c6d5"/><path d="M56.853,22.829a2.4,2.4,0,0,0,3.376-3.376l-3.376-3.376a2.4,2.4,0,0,0-3.376,3.376Z" transform="translate(-41.889 -12.283)" fill="#00c6d5"/><path d="M182.353,22.829l3.376-3.376a2.4,2.4,0,0,0-3.376-3.376l-3.376,3.376a2.4,2.4,0,0,0,3.376,3.376" transform="translate(-141.232 -12.283)" fill="#00c6d5"/><path d="M99.811,190.9a7.711,7.711,0,0,0-7.711,7.711V207.2a1.2,1.2,0,1,0,2.4,0v-8.587a5.335,5.335,0,0,1,10.671,0V207.2a1.2,1.2,0,0,0,2.4,0v-8.587a7.711,7.711,0,0,0-7.711-7.711" transform="translate(-72.905 -151.113)" fill="#00c6d5"/></g></g></svg>