<svg xmlns="http://www.w3.org/2000/svg" xmlns:xlink="http://www.w3.org/1999/xlink" width="66.471" height="81.656" viewBox="0 0 66.471 81.656"><defs><clipPath id="a"><rect width="66.471" height="81.656" fill="none"/></clipPath></defs><g transform="translate(33.235 40.828)"><g transform="translate(-33.235 -40.828)" clip-path="url(#a)"><path d="M27,180.646H80.751V137.8H27ZM53.876,145.29a6.949,6.949,0,0,1,3.533,12.931v9.94a3.533,3.533,0,1,1-7.066,0v-9.94a6.949,6.949,0,0,1,3.533-12.931" transform="translate(-20.64 -105.342)" fill="#fff"/><path d="M65.231,29.1H56.869v-.683a29.606,29.606,0,0,0-6.6-18.043C46.27,5.615,41.017,3,35.505,3s-10.694,2.615-14.7,7.349a29.606,29.606,0,0,0-6.6,18.043v.683H5.827A2.827,2.827,0,0,0,3,31.9V80.424A2.827,2.827,0,0,0,5.827,83.25h59.4a2.827,2.827,0,0,0,2.827-2.827v-48.5A2.827,2.827,0,0,0,65.231,29.1m-45.366-.754C20.36,17.3,27.238,8.653,35.505,8.653S50.7,17.3,51.169,28.345v.73H19.841ZM62.4,77.574H8.653V34.751H62.4Z" transform="translate(-2.293 -2.293)" fill="#00c6d5"/><path d="M114.937,182.365v9.94a3.533,3.533,0,0,0,7.066,0v-9.94a6.972,6.972,0,1,0-7.066,0m3.533-12.225a6.265,6.265,0,0,1,6.265,6.265,6.2,6.2,0,0,1-3.086,5.37l-.353.212v10.34a2.827,2.827,0,0,1-5.653,0V181.964l-.353-.212a6.2,6.2,0,0,1-3.086-5.37,6.265,6.265,0,0,1,6.266-6.266" transform="translate(-85.235 -129.485)" fill="#00c6d5"/><path d="M117.662,185.382l.353.212v10.34a2.827,2.827,0,1,0,5.653,0v-10.34l.353-.212a6.2,6.2,0,0,0,3.086-5.37,6.266,6.266,0,0,0-12.507,0,6.2,6.2,0,0,0,3.086,5.37" transform="translate(-87.606 -133.115)" fill="#00c6d5"/></g></g></svg>