<svg xmlns="http://www.w3.org/2000/svg" xmlns:xlink="http://www.w3.org/1999/xlink" width="83.1" height="73.559" viewBox="0 0 83.1 73.559"><defs><clipPath id="a"><rect width="83.1" height="73.559" fill="none"/></clipPath></defs><g transform="translate(41.55 36.779)"><g transform="translate(-41.55 -36.779)" clip-path="url(#a)"><path d="M59.392,58.351c-7.364-1.261-11.53-7.82-11.712-8.094l-1-1.59L60.89,34.451C57.254,29.993,52.412,27.8,46.145,27.8l-1.352.037c-5.335.238-9.538,2.193-12.516,5.847A20.958,20.958,0,0,0,27.8,47.314a30.185,30.185,0,0,0,.457,5.189c.987,5.134,4.221,10.89,9.629,17.048a116.993,116.993,0,0,0,15.549,14.27c1.078.786,2.174,1.736,3.234,2.649,2.357,2.028,4.6,3.965,7.2,4.659.987.256,2.522-.457,4.093-1.517L56.249,77.9l3.344-3.344L71.744,86.708l1.188-1.023c.841-.731,1.59-1.389,2.229-1.882l1.864-1.48L65.33,70.629l3.344-3.344,11.968,12q2.266-1.955,4.276-3.855L72.694,63.211l3.344-3.325L88.28,72.128c.822-.859,1.608-1.7,2.357-2.54s1.864-2.156,2.686-3.216L76.586,49.635c-4.732,4.586-11.182,9.757-17.194,8.716" transform="translate(-22.72 -22.72)" fill="#fff"/><path d="M195.671,27.837l-1.389-.037c-5.7,0-10.214,1.827-13.759,5.591L164.7,49.215a13.408,13.408,0,0,0,7.382,4.495c3.435.6,8.076-2.375,14.362-8.7l2.028-2.028,19.5,19.478a27.9,27.9,0,0,0,4.184-9.995,30.2,30.2,0,0,0,.457-5.153,20.974,20.974,0,0,0-4.477-13.649c-2.978-3.654-7.163-5.609-12.48-5.847" transform="translate(-134.606 -22.72)" fill="#fff"/><path d="M62.918,2.006C55.226,1.6,48.886,4,44.153,8.986l-1,1C38.653,4.673,32.587,1.969,25.059,1.969l-1.59.037c-6.724.292-12.1,2.85-15.951,7.583S2,19.693,2,26.216a34.991,34.991,0,0,0,.548,6.048C3.7,38.275,7.3,44.78,13.274,51.577a122.9,122.9,0,0,0,16.244,14.91c.987.731,1.973,1.571,3.015,2.467,2.668,2.284,5.408,4.659,9.045,5.646a6.121,6.121,0,0,0,1.608.2c4.111,0,8.478-3.8,11.767-6.669.767-.658,1.462-1.279,2.046-1.736A122.764,122.764,0,0,0,73.1,51.6c6.066-6.815,9.684-13.357,10.762-19.423a35.1,35.1,0,0,0,.53-5.957A25.673,25.673,0,0,0,78.87,9.607a21.246,21.246,0,0,0-15.951-7.6m6.614,46.447c-.731.841-1.535,1.681-2.357,2.54L54.934,38.75,51.59,42.094,63.814,54.318q-2.01,1.9-4.276,3.855l-12-12L44.19,49.513,55.884,61.207l-1.809,1.48c-.64.512-1.407,1.169-2.229,1.882l-1.188,1.023L38.507,53.441l-3.344,3.344L46.894,68.515c-1.59,1.06-3.106,1.791-4.093,1.517-2.595-.694-4.842-2.631-7.2-4.659-1.06-.914-2.156-1.864-3.234-2.649a118.151,118.151,0,0,1-15.549-14.27C11.41,42.3,8.176,36.54,7.189,31.405a30.186,30.186,0,0,1-.457-5.189,20.862,20.862,0,0,1,4.458-13.649c2.978-3.654,7.163-5.609,12.516-5.847l1.352-.037c6.267,0,11.109,2.174,14.745,6.651L25.589,27.55l1,1.59c.183.274,4.349,6.815,11.712,8.094C44.3,38.275,50.749,33.1,55.5,28.518L72.237,45.255q-1.242,1.59-2.686,3.216m9.648-17.1a28.17,28.17,0,0,1-4.184,9.995L55.5,21.849l-2.028,2.028c-6.286,6.34-11.109,9.264-14.362,8.7a13.854,13.854,0,0,1-7.382-4.495L47.533,12.275C51.1,8.511,55.591,6.683,61.292,6.683l1.389.037c5.317.238,9.5,2.193,12.48,5.847a20.974,20.974,0,0,1,4.477,13.649,30.2,30.2,0,0,1-.457,5.153" transform="translate(-1.635 -1.604)" fill="#00c6d5"/></g></g></svg>