<svg xmlns="http://www.w3.org/2000/svg" xmlns:xlink="http://www.w3.org/1999/xlink" width="66.226" height="94.657" viewBox="0 0 66.226 94.657"><defs><clipPath id="a"><rect width="66.226" height="94.657" fill="none"/></clipPath></defs><g transform="translate(33.113 47.328)"><g transform="translate(-33.113 -47.328)" clip-path="url(#a)"><path d="M23.378,94.946H58.806a2.315,2.315,0,0,0,2.315-2.315V78.39L64.49,66.856a27.221,27.221,0,0,0,1.1-7.627V30.519a7.007,7.007,0,0,0-7.007-7.007H56.966a6.966,6.966,0,0,0-4.754,1.9,7.193,7.193,0,0,0-4.837-1.9H46.239a7.193,7.193,0,0,0-4.919,1.964A7.193,7.193,0,0,0,36.4,23.512H35.263a7.172,7.172,0,0,0-2.6.5V7.534A7.255,7.255,0,0,0,25.424.3H24.288a7.255,7.255,0,0,0-7.255,7.234V38.828q-1.116-1.385-2.48-2.935A8.682,8.682,0,1,0,1.3,47.117c7.462,9.239,8.433,10.81,8.5,10.914s6.511,16.226,11.244,21.083V92.631a2.315,2.315,0,0,0,2.336,2.315m-9.26-38.652c-.207-.5-.579-1.426-9.2-12.112a4.033,4.033,0,0,1,6.16-5.209c3.142,3.576,5.333,6.573,6.16,8.454a2.315,2.315,0,0,0,4.444-.93V7.534a2.6,2.6,0,0,1,2.6-2.584h1.137a2.6,2.6,0,0,1,2.6,2.584V36.121a2.336,2.336,0,0,0,4.651,0V30.767a2.6,2.6,0,0,1,2.6-2.6h1.137A2.6,2.6,0,0,1,39,30.767v5.353a2.336,2.336,0,0,0,4.651,0V30.767a2.6,2.6,0,0,1,2.6-2.6h1.1a2.6,2.6,0,0,1,2.584,2.6v5.353a2.336,2.336,0,0,0,4.651,0V30.54a2.356,2.356,0,0,1,2.356-2.356h1.612a2.356,2.356,0,0,1,2.356,2.356V59.25A22.592,22.592,0,0,1,60,65.575L56.553,77.418a2.316,2.316,0,0,0-.083.641V90.3H25.693V78.059a2.336,2.336,0,0,0-.992-1.9c-2.563-1.778-8.247-13.993-10.583-19.843" transform="translate(0.599 -0.238)" fill="#00c6d5"/><path d="M35.059,64.9c-.827-1.881-3.018-4.878-6.16-8.454a4.033,4.033,0,1,0-6.16,5.209c8.619,10.686,8.991,11.616,9.2,12.112,2.336,5.85,8.02,18.086,10.583,19.843a2.336,2.336,0,0,1,.992,1.922v12.236H74.29V95.529a2.315,2.315,0,0,1,.083-.641l3.452-11.844a22.592,22.592,0,0,0,.909-6.325V48.01a2.356,2.356,0,0,0-2.356-2.356H74.765a2.356,2.356,0,0,0-2.356,2.356v5.581a2.325,2.325,0,0,1-4.651,0V48.237a2.6,2.6,0,0,0-2.584-2.584H64.038a2.6,2.6,0,0,0-2.6,2.584v5.353a2.336,2.336,0,0,1-4.651,0V48.237a2.6,2.6,0,0,0-2.6-2.584H53.042a2.6,2.6,0,0,0-2.6,2.584v5.353a2.336,2.336,0,0,1-4.651,0V25A2.6,2.6,0,0,0,43.2,22.4H42.066A2.6,2.6,0,0,0,39.5,25V63.967a2.315,2.315,0,0,1-4.444.93" transform="translate(-17.283 -17.77)" fill="#fff"/></g></g></svg>